# xmcd
#
# Track frame offsets: 
#        150
#        19297
#        43675
#        66889
#        85388
#        102206
#        120901
#        140378
#        157084
#        176022
#        194110
#
# Disc length: 2964 seconds
#
# Revision: 0
# Processed by: cddbd v1.5.2PL0 Copyright (c) Steve Scherf et al.
# Submitted via: ExactAudioCopy v1.1
#
DISCID=9a0b920b
DTITLE=Phil Petroff and The Natural Fact - Better Late Than Never
DYEAR=2009
DGENRE=Blues
TTITLE0=Let's Party
TTITLE1=You're All I Need
TTITLE2=Black Night
TTITLE3=Better Late Than Never
TTITLE4=Can't Get Next To You
TTITLE5=It's Over Babe
TTITLE6=Duct Tape
TTITLE7=Let's Get Busy
TTITLE8=The Zone
TTITLE9=36-22-36
TTITLE10=Cry Myself To Sleep
EXTD=
EXTT0=
EXTT1=
EXTT2=
EXTT3=
EXTT4=
EXTT5=
EXTT6=
EXTT7=
EXTT8=
EXTT9=
EXTT10=
PLAYORDER=
